<svg xmlns="http://www.w3.org/2000/svg" width="17.25" height="17.25" viewBox="0 0 17.25 17.25">
  <g id="app" transform="translate(0.125 0.125)">
    <g id="Group_985" data-name="Group 985">
      <g id="Group_984" data-name="Group 984">
        <path id="Path_3785" data-name="Path 3785" d="M6.283,0H1.108A1.11,1.11,0,0,0,0,1.109V6.283A1.11,1.11,0,0,0,1.109,7.391H6.283A1.11,1.11,0,0,0,7.391,6.283V1.109A1.11,1.11,0,0,0,6.283,0Zm.37,6.283a.37.37,0,0,1-.37.37H1.109a.37.37,0,0,1-.37-.37V1.109a.37.37,0,0,1,.369-.37H6.283a.37.37,0,0,1,.37.37V6.283Z" stroke="#000" stroke-width="0.25"/>
        <path id="Path_3786" data-name="Path 3786" d="M295.675,0H290.5a1.11,1.11,0,0,0-1.109,1.109V6.283A1.11,1.11,0,0,0,290.5,7.391h5.174a1.11,1.11,0,0,0,1.109-1.109V1.109A1.11,1.11,0,0,0,295.675,0Zm.37,6.283a.37.37,0,0,1-.37.37H290.5a.37.37,0,0,1-.37-.37V1.109a.37.37,0,0,1,.37-.37h5.174a.37.37,0,0,1,.37.37Z" transform="translate(-279.783)" stroke="#000" stroke-width="0.25"/>
        <path id="Path_3787" data-name="Path 3787" d="M6.283,289.391H1.108A1.11,1.11,0,0,0,0,290.5v5.174a1.11,1.11,0,0,0,1.109,1.109H6.283a1.11,1.11,0,0,0,1.109-1.109V290.5A1.11,1.11,0,0,0,6.283,289.391Zm.37,6.283a.37.37,0,0,1-.37.37H1.109a.37.37,0,0,1-.37-.37V290.5a.37.37,0,0,1,.369-.37H6.283a.37.37,0,0,1,.37.37v5.174Z" transform="translate(0 -279.782)" stroke="#000" stroke-width="0.25"/>
        <path id="Path_3788" data-name="Path 3788" d="M295.675,289.391H290.5a1.11,1.11,0,0,0-1.109,1.109v5.174a1.11,1.11,0,0,0,1.109,1.109h5.174a1.11,1.11,0,0,0,1.109-1.109V290.5A1.11,1.11,0,0,0,295.675,289.391Zm.37,6.283a.37.37,0,0,1-.37.37H290.5a.37.37,0,0,1-.37-.37V290.5a.37.37,0,0,1,.37-.37h5.174a.37.37,0,0,1,.37.37Z" transform="translate(-279.783 -279.782)" stroke="#000" stroke-width="0.25"/>
      </g>
    </g>
  </g>
</svg>
