<svg xmlns="http://www.w3.org/2000/svg" width="15.868" height="17.063" viewBox="0 0 15.868 17.063">
  <g id="fax" transform="translate(1)">
    <path id="Path_1494" data-name="Path 1494" d="M13.573,4.394H6.38V3.9A1.3,1.3,0,0,0,5.093,2.6H2.967V.427a.427.427,0,1,0-.853,0v2.2A1.282,1.282,0,0,0,.962,3.9v.5H.3A1.3,1.3,0,0,0-1,5.679V14a1.286,1.286,0,0,0,1.3,1.27H.962v.512a1.277,1.277,0,0,0,1.275,1.28H5.093a1.288,1.288,0,0,0,1.287-1.28v-.512h7.193a1.286,1.286,0,0,0,1.3-1.27V5.679a1.3,1.3,0,0,0-1.3-1.285ZM.3,14.418A.433.433,0,0,1-.147,14V5.679A.445.445,0,0,1,.3,5.247H.962v9.171Zm5.231,1.365a.427.427,0,0,1-.427.427H2.242a.426.426,0,0,1-.427-.427V3.882a.426.426,0,0,1,.427-.427H5.1a.427.427,0,0,1,.427.427ZM14.015,14a.433.433,0,0,1-.443.417H6.38V5.247h7.193a.446.446,0,0,1,.443.432Zm0,0" fill="#f3f3fd"/>
    <path id="Path_1495" data-name="Path 1495" d="M253.039,190.427a.427.427,0,0,0-.427-.427h-4.436a.426.426,0,0,0-.427.427v1.792a.426.426,0,0,0,.427.427h4.436a.427.427,0,0,0,.427-.427Zm-.81,1.365H248.6v-.938h3.626Zm0,0" transform="translate(-240.261 -183.516)" fill="#f3f3fd"/>
    <path id="Path_1496" data-name="Path 1496" d="M253.149,305H248.7a.427.427,0,0,0,0,.853h4.449a.427.427,0,0,0,0-.853Zm0,0" transform="translate(-240.767 -294.592)" fill="#f3f3fd"/>
    <path id="Path_1497" data-name="Path 1497" d="M253.149,356.25H248.7a.427.427,0,0,0,0,.853h4.449a.427.427,0,0,0,0-.853Zm0,0" transform="translate(-240.767 -344.093)" fill="#f3f3fd"/>
  </g>
</svg>
