<svg xmlns="http://www.w3.org/2000/svg" viewBox="0 0 1263.13 95.12"><defs><style>.cls-1{fill:#7e6342;}.cls-2{fill:#939783;}.cls-3{fill:#c8c9c4;}.cls-4{fill:#afb8b8;}.cls-5{fill:#6b9994;}.cls-6{fill:#b8b29d;}.cls-7{fill:#c7c9c6;}.cls-8{fill:#959181;}.cls-9{fill:#d9dcd8;}.cls-10{fill:#c2c8ca;}.cls-11{fill:#e9eae6;}.cls-12{fill:#cdc5b8;}.cls-13{fill:#634138;}.cls-14{fill:#a9aaa1;}.cls-15{fill:#d6dbdb;}.cls-16{fill:#afb6b0;}.cls-17{fill:#cccdc2;}.cls-18{fill:#c9c4c2;}.cls-19{fill:#2a2f2b;}.cls-20{fill:#aca292;}.cls-21{fill:#83867b;}.cls-22{fill:#56461e;}.cls-23{fill:#bab090;}.cls-24{fill:#ab9c85;}.cls-25{fill:#b09a84;}.cls-26{fill:#1c1b16;}.cls-27{fill:#7e6c4c;}.cls-28{fill:#6f6745;}.cls-29{fill:#a87b14;}.cls-30{fill:#22211e;}.cls-31{fill:#938271;}.cls-32{fill:#232722;}.cls-33{fill:#1d2419;}.cls-34{fill:#b29889;}.cls-35{fill:#83807a;}.cls-36{fill:#6d6f67;}.cls-37{fill:#5b4f43;}.cls-38{fill:#873d1f;}.cls-39{fill:#d6d0c8;}.cls-40{fill:#a99167;}.cls-41{fill:#a2895e;}.cls-42{fill:#842019;}.cls-43{fill:#e2dcca;}.cls-44{fill:#b09764;}.cls-45{fill:#c1ad8e;}.cls-46{fill:#b48b42;}.cls-47{fill:#e7c47c;}.cls-48{fill:#7e4b3c;}.cls-49{fill:#b0b2af;}.cls-50{fill:#a3816e;}.cls-51{fill:#b5a086;}.cls-52{fill:#4f2425;}.cls-53{fill:#e5e6e4;}.cls-54{fill:#8a937e;}.cls-55{fill:#3d251d;}.cls-56{fill:#1c1a19;}.cls-57{fill:#3f8dc4;}.cls-58{fill:#0e3f62;}.cls-59{fill:#b16e3d;}.cls-60{fill:#d3c5ba;}.cls-61{fill:#c4c2b8;}.cls-62{fill:#bac4c2;}.cls-63{fill:#0f1018;}.cls-64{fill:#5a4245;}.cls-65{fill:#4e4343;}.cls-66{fill:#5b4331;}.cls-67{fill:#33231a;}.cls-68{fill:#00896c;}.cls-69{fill:#ad916c;}.cls-70{fill:#906840;}.cls-71{fill:#433a32;}.cls-72{fill:#d98427;}.cls-73{fill:#ab9891;}.cls-74{fill:#998d83;}.cls-75{fill:#685546;}.cls-76{fill:#686e6d;}.cls-77{fill:#6d6855;}.cls-78{fill:#5a3521;}.cls-79{fill:#d7d8d5;}.cls-80{fill:#412f2d;}</style></defs><title>Risorsa 3</title><g id="Livello_2" data-name="Livello 2"><g id="Livello_1-2" data-name="Livello 1"><rect class="cls-1" width="4" height="95.12"/><rect class="cls-2" x="485.06" width="4" height="95.12"/><rect class="cls-3" x="391.48" width="4" height="95.12"/><rect class="cls-4" x="461.67" width="4" height="95.12"/><rect class="cls-5" x="492.86" width="4" height="95.12"/><rect class="cls-6" x="469.47" width="4" height="95.12"/><rect class="cls-7" x="383.68" width="4" height="95.12"/><rect class="cls-8" x="477.26" width="4" height="95.12"/><rect class="cls-9" x="375.88" width="4" height="95.12"/><rect class="cls-10" x="453.87" width="4" height="95.12"/><rect class="cls-11" x="368.08" width="4" height="95.12"/><rect class="cls-12" x="414.87" width="4" height="95.12"/><rect class="cls-13" x="422.67" width="4" height="95.12"/><rect class="cls-14" x="430.47" width="4" height="95.12"/><rect class="cls-15" x="446.07" width="4" height="95.12"/><rect class="cls-16" x="438.27" width="4" height="95.12"/><rect class="cls-17" x="407.08" width="4" height="95.12"/><rect class="cls-18" x="399.28" width="4" height="95.12"/><rect class="cls-19" x="125.64" width="4" height="95.12"/><rect class="cls-20" x="78.72" width="4" height="95.12"/><rect class="cls-21" x="110" width="4" height="95.12"/><rect class="cls-22" x="16.17" width="4" height="95.12"/><rect class="cls-23" x="47.44" width="4" height="95.12"/><rect class="cls-24" x="86.54" width="4" height="95.12"/><rect class="cls-25" x="55.26" width="4" height="95.12"/><rect class="cls-26" x="156.92" width="4" height="95.12"/><rect class="cls-27" x="31.81" width="4" height="95.12"/><rect class="cls-28" x="94.36" width="4" height="95.12"/><rect class="cls-29" x="39.63" width="4" height="95.12"/><rect class="cls-30" x="149.1" width="4" height="95.12"/><rect class="cls-31" x="70.9" width="4" height="95.12"/><rect class="cls-1" x="23.99" width="4" height="95.12"/><rect class="cls-32" x="133.46" width="4" height="95.12"/><rect class="cls-33" x="141.28" width="4" height="95.12"/><rect class="cls-34" x="63.08" width="4" height="95.12"/><rect class="cls-35" x="117.82" width="4" height="95.12"/><rect class="cls-36" x="102.18" width="4" height="95.12"/><rect class="cls-37" x="8.35" width="4" height="95.12"/><rect class="cls-38" x="547.49" width="4" height="95.12"/><rect class="cls-39" x="524.09" width="4" height="95.12"/><rect class="cls-40" x="602.08" width="4" height="95.12"/><rect class="cls-41" x="617.68" width="4" height="95.12"/><rect class="cls-42" x="539.69" width="4" height="95.12"/><rect class="cls-43" x="516.29" width="4" height="95.12"/><rect class="cls-44" x="609.88" width="4" height="95.12"/><rect class="cls-45" x="578.68" width="4" height="95.12"/><rect class="cls-46" x="586.48" width="4" height="95.12"/><rect class="cls-47" x="594.28" width="4" height="95.12"/><rect class="cls-48" x="555.29" width="4" height="95.12"/><rect class="cls-49" x="500.7" width="4" height="95.12"/><rect class="cls-50" x="563.09" width="4" height="95.12"/><rect class="cls-51" x="570.88" width="4" height="95.12"/><rect class="cls-52" x="531.89" width="4" height="95.12"/><rect class="cls-53" x="508.49" width="4" height="95.12"/><rect class="cls-54" x="625.47" width="4" height="95.12"/><rect class="cls-55" x="227.31" width="4" height="95.12"/><rect class="cls-56" x="352.43" width="4" height="95.12"/><rect class="cls-57" x="336.79" width="4" height="95.12"/><rect class="cls-58" x="344.61" width="4" height="95.12"/><rect class="cls-59" x="250.77" width="4" height="95.12"/><rect class="cls-60" x="289.87" width="4" height="95.12"/><rect class="cls-61" x="297.69" width="4" height="95.12"/><rect class="cls-62" x="172.58" width="4" height="95.12"/><rect class="cls-63" x="360.25" width="4" height="95.12"/><rect class="cls-64" x="203.85" width="4" height="95.12"/><rect class="cls-65" x="196.03" width="4" height="95.12"/><rect class="cls-66" x="242.95" width="4" height="95.12"/><rect class="cls-67" x="219.49" width="4" height="95.12"/><rect class="cls-68" x="328.97" width="4" height="95.12"/><rect class="cls-69" x="282.05" width="4" height="95.12"/><rect class="cls-70" x="274.23" width="4" height="95.12"/><rect class="cls-71" x="321.15" width="4" height="95.12"/><rect class="cls-72" x="258.59" width="4" height="95.12"/><rect class="cls-73" x="180.4" width="4" height="95.12"/><rect class="cls-74" x="188.22" width="4" height="95.12"/><rect class="cls-75" x="266.41" width="4" height="95.12"/><rect class="cls-76" x="305.51" width="4" height="95.12"/><rect class="cls-77" x="313.33" width="4" height="95.12"/><rect class="cls-78" x="235.13" width="4" height="95.12"/><rect class="cls-79" x="164.76" width="4" height="95.12"/><rect class="cls-80" x="211.67" width="4" height="95.12"/><rect class="cls-1" x="1259.13" width="4" height="95.12"/><rect class="cls-2" x="774.07" width="4" height="95.12"/><rect class="cls-3" x="867.65" width="4" height="95.12"/><rect class="cls-4" x="797.46" width="4" height="95.12"/><rect class="cls-5" x="766.27" width="4" height="95.12"/><rect class="cls-6" x="789.66" width="4" height="95.12"/><rect class="cls-7" x="875.45" width="4" height="95.12"/><rect class="cls-8" x="781.87" width="4" height="95.12"/><rect class="cls-9" x="883.25" width="4" height="95.12"/><rect class="cls-10" x="805.26" width="4" height="95.12"/><rect class="cls-11" x="891.05" width="4" height="95.12"/><rect class="cls-12" x="844.26" width="4" height="95.12"/><rect class="cls-13" x="836.46" width="4" height="95.12"/><rect class="cls-14" x="828.66" width="4" height="95.12"/><rect class="cls-15" x="813.06" width="4" height="95.12"/><rect class="cls-16" x="820.86" width="4" height="95.12"/><rect class="cls-17" x="852.05" width="4" height="95.12"/><rect class="cls-18" x="859.85" width="4" height="95.12"/><rect class="cls-19" x="1133.49" width="4" height="95.12"/><rect class="cls-20" x="1180.41" width="4" height="95.12"/><rect class="cls-21" x="1149.13" width="4" height="95.12"/><rect class="cls-22" x="1242.96" width="4" height="95.12"/><rect class="cls-23" x="1211.69" width="4" height="95.12"/><rect class="cls-24" x="1172.59" width="4" height="95.12"/><rect class="cls-25" x="1203.87" width="4" height="95.12"/><rect class="cls-26" x="1102.21" width="4" height="95.12"/><rect class="cls-27" x="1227.33" width="4" height="95.12"/><rect class="cls-28" x="1164.77" width="4" height="95.12"/><rect class="cls-29" x="1219.51" width="4" height="95.12"/><rect class="cls-30" x="1110.03" width="4" height="95.12"/><rect class="cls-31" x="1188.23" width="4" height="95.12"/><rect class="cls-1" x="1235.14" width="4" height="95.12"/><rect class="cls-32" x="1125.67" width="4" height="95.12"/><rect class="cls-33" x="1117.85" width="4" height="95.12"/><rect class="cls-34" x="1196.05" width="4" height="95.12"/><rect class="cls-35" x="1141.31" width="4" height="95.12"/><rect class="cls-36" x="1156.95" width="4" height="95.12"/><rect class="cls-37" x="1250.78" width="4" height="95.12"/><rect class="cls-38" x="711.64" width="4" height="95.12"/><rect class="cls-39" x="735.04" width="4" height="95.12"/><rect class="cls-40" x="657.05" width="4" height="95.12"/><rect class="cls-41" x="641.45" width="4" height="95.12"/><rect class="cls-42" x="719.44" width="4" height="95.12"/><rect class="cls-43" x="742.84" width="4" height="95.12"/><rect class="cls-44" x="649.25" width="4" height="95.12"/><rect class="cls-45" x="680.45" width="4" height="95.12"/><rect class="cls-46" x="672.65" width="4" height="95.12"/><rect class="cls-47" x="664.85" width="4" height="95.12"/><rect class="cls-48" x="703.84" width="4" height="95.12"/><rect class="cls-49" x="758.43" width="4" height="95.12"/><rect class="cls-50" x="696.04" width="4" height="95.12"/><rect class="cls-51" x="688.25" width="4" height="95.12"/><rect class="cls-52" x="727.24" width="4" height="95.12"/><rect class="cls-53" x="750.64" width="4" height="95.12"/><rect class="cls-54" x="633.66" width="4" height="95.12"/><rect class="cls-55" x="1031.82" width="4" height="95.12"/><rect class="cls-56" x="906.7" width="4" height="95.12"/><rect class="cls-57" x="922.34" width="4" height="95.12"/><rect class="cls-58" x="914.52" width="4" height="95.12"/><rect class="cls-59" x="1008.36" width="4" height="95.12"/><rect class="cls-60" x="969.26" width="4" height="95.12"/><rect class="cls-61" x="961.44" width="4" height="95.12"/><rect class="cls-62" x="1086.56" width="4" height="95.12"/><rect class="cls-63" x="898.88" width="4" height="95.12"/><rect class="cls-64" x="1055.28" width="4" height="95.12"/><rect class="cls-65" x="1063.1" width="4" height="95.12"/><rect class="cls-66" x="1016.18" width="4" height="95.12"/><rect class="cls-67" x="1039.64" width="4" height="95.12"/><rect class="cls-68" x="930.16" width="4" height="95.12"/><rect class="cls-69" x="977.08" width="4" height="95.12"/><rect class="cls-70" x="984.9" width="4" height="95.12"/><rect class="cls-71" x="937.98" width="4" height="95.12"/><rect class="cls-72" x="1000.54" width="4" height="95.12"/><rect class="cls-73" x="1078.74" width="4" height="95.12"/><rect class="cls-74" x="1070.92" width="4" height="95.12"/><rect class="cls-75" x="992.72" width="4" height="95.12"/><rect class="cls-76" x="953.62" width="4" height="95.12"/><rect class="cls-77" x="945.8" width="4" height="95.12"/><rect class="cls-78" x="1024" width="4" height="95.12"/><rect class="cls-79" x="1094.37" width="4" height="95.12"/><rect class="cls-80" x="1047.46" width="4" height="95.12"/></g></g></svg>