<svg xmlns="http://www.w3.org/2000/svg" width="25.912" height="20.354" viewBox="0 0 25.912 20.354">
  <g id="qa" transform="translate(0.248 0.25)">
    <g id="Group_888" data-name="Group 888" transform="translate(17.448 5.758)">
      <g id="Group_887" data-name="Group 887">
        <path id="Path_3641" data-name="Path 3641" d="M352.347,116.145a.5.5,0,1,0,.146.351A.5.5,0,0,0,352.347,116.145Z" transform="translate(-351.5 -116)" stroke="#000" stroke-width="0.5"/>
      </g>
    </g>
    <g id="Group_890" data-name="Group 890" transform="translate(9.233 5.758)">
      <g id="Group_889" data-name="Group 889">
        <path id="Path_3642" data-name="Path 3642" d="M199.7,116h-3.164a.5.5,0,0,0,0,.993H199.7a1.491,1.491,0,0,1,1.489,1.489v7.148a1.491,1.491,0,0,1-1.489,1.489H199a.5.5,0,0,0-.351.145l-1.634,1.634-1.634-1.634a.5.5,0,0,0-.351-.145h-6.552a1.491,1.491,0,0,1-1.489-1.489v-1.787a.5.5,0,1,0-.993,0v1.787a2.485,2.485,0,0,0,2.482,2.482h6.346l1.84,1.84a.5.5,0,0,0,.7,0l1.84-1.84h.489a2.485,2.485,0,0,0,2.482-2.482v-7.148A2.485,2.485,0,0,0,199.7,116Z" transform="translate(-186 -116)" stroke="#000" stroke-width="0.5"/>
      </g>
    </g>
    <g id="Group_892" data-name="Group 892" transform="translate(0.002)">
      <g id="Group_891" data-name="Group 891">
        <path id="Path_3643" data-name="Path 3643" d="M13.725,0H2.507A2.485,2.485,0,0,0,.025,2.482V9.629a2.485,2.485,0,0,0,2.482,2.482H3.549l1.84,1.84a.5.5,0,0,0,.7,0l1.84-1.84h5.793a2.485,2.485,0,0,0,2.482-2.482V2.482A2.485,2.485,0,0,0,13.725,0Zm1.489,9.629a1.491,1.491,0,0,1-1.489,1.489h-6a.5.5,0,0,0-.351.145L5.74,12.9,4.106,11.264a.5.5,0,0,0-.351-.145H2.507A1.491,1.491,0,0,1,1.018,9.629V2.482A1.491,1.491,0,0,1,2.507.993H13.724a1.491,1.491,0,0,1,1.489,1.489Z" transform="translate(-0.025)" stroke="#000" stroke-width="0.5"/>
      </g>
    </g>
    <g id="Group_894" data-name="Group 894" transform="translate(15.688 9.232)">
      <g id="Group_893" data-name="Group 893">
        <path id="Path_3644" data-name="Path 3644" d="M320.51,190.473l-1.76-4.169a.5.5,0,0,0-.915,0l-1.76,4.169a.5.5,0,1,0,.915.386l.249-.589h2.108l.249.589a.5.5,0,0,0,.915-.386Zm-2.853-1.2.635-1.5.635,1.5Z" transform="translate(-316.035 -186)"/>
      </g>
    </g>
    <g id="Group_896" data-name="Group 896" transform="translate(5.586 3.375)">
      <g id="Group_895" data-name="Group 895">
        <path id="Path_3645" data-name="Path 3645" d="M117.336,72.416l-.471-.347a2.27,2.27,0,0,0,.226-.991v-.794a2.283,2.283,0,1,0-4.567,0v.794a2.282,2.282,0,0,0,3.724,1.77l.5.367a.5.5,0,1,0,.589-.8ZM116.1,71.078a1.287,1.287,0,0,1-.058.384l-.524-.386a.5.5,0,0,0-.589.8l.474.349a1.29,1.29,0,0,1-1.884-1.146v-.794h0a1.291,1.291,0,0,1,2.581,0Z" transform="translate(-112.525 -68.001)"/>
      </g>
    </g>
  </g>
</svg>
