<svg id="_comment" data-name=" comment" xmlns="http://www.w3.org/2000/svg" width="17.123" height="17.123" viewBox="0 0 17.123 17.123">
  <path id="Path_2463" data-name="Path 2463" d="M8.582,17.122a8.484,8.484,0,0,0,4.443-1.258l3.2.873a.713.713,0,0,0,.833-.992,6.4,6.4,0,0,1-.327-4.622,8.68,8.68,0,0,0,.267-1.1,8.559,8.559,0,0,0-6.968-9.9L9.985.12A8.56,8.56,0,0,0,1.436,13.3a8.5,8.5,0,0,0,5.439,3.652A8.668,8.668,0,0,0,8.582,17.122Zm4.326-2.741a.716.716,0,0,0-.4.119A7.133,7.133,0,1,1,9.776,1.531l.039.006A7.135,7.135,0,0,1,15.59,9.78a7.2,7.2,0,0,1-.223.92,7.831,7.831,0,0,0-.093,4.3L13.1,14.405A.737.737,0,0,0,12.908,14.381Z" transform="translate(-0.002 0.001)"/>
  <path id="Path_2464" data-name="Path 2464" d="M150.015,193.4h5.707a.713.713,0,1,0,0-1.427h-5.707a.713.713,0,0,0,0,1.427Z" transform="translate(-144.306 -185.549)"/>
  <path id="Path_2465" data-name="Path 2465" d="M150.015,278.708h5.707a.713.713,0,1,0,0-1.427h-5.707a.713.713,0,0,0,0,1.427Z" transform="translate(-144.306 -268.007)"/>
</svg>
