<svg xmlns="http://www.w3.org/2000/svg" width="15.759" height="13.78" viewBox="0 0 15.759 13.78">
  <g id="install_w" transform="translate(-403 -411.154)">
    <g id="Uninstal" transform="translate(92 -127.755)">
      <g id="setup" transform="translate(311 547.678)">
        <path id="Path_3797" data-name="Path 3797" d="M14.546,18.967V21.83a.668.668,0,0,1-.606.716H1.818a.668.668,0,0,1-.606-.716V18.967H0V21.83a2,2,0,0,0,1.818,2.147H13.94a2,2,0,0,0,1.818-2.147V18.967Z" transform="translate(0 -18.967)"/>
      </g>
    </g>
    <g id="Group_1158" data-name="Group 1158" transform="translate(408 411.155)">
      <g id="Group_1157" data-name="Group 1157">
        <path id="Path_3960" data-name="Path 3960" d="M134.195,5.681a.389.389,0,0,0-.354-.228h-1.558V.389A.39.39,0,0,0,131.893,0h-1.558a.39.39,0,0,0-.389.389V5.453h-1.558a.389.389,0,0,0-.293.646l2.726,3.116a.389.389,0,0,0,.586,0L134.133,6.1A.388.388,0,0,0,134.195,5.681Z" transform="translate(-127.998)"/>
      </g>
    </g>
  </g>
</svg>
