<svg xmlns="http://www.w3.org/2000/svg" width="13.5" height="14.5" viewBox="0 0 13.5 14.5">
  <g id="refresh_A" transform="translate(-16.817 0.25)">
    <g id="Group_998" data-name="Group 998" transform="translate(17.067)">
      <g id="Group_997" data-name="Group 997" transform="translate(0)">
        <path id="Path_3794" data-name="Path 3794" d="M28.567,0a.5.5,0,0,0-.5.5V2.326A6.487,6.487,0,0,0,17.067,7a.5.5,0,1,0,1,0,5.5,5.5,0,0,1,9.557-3.712l-2.215.738a.5.5,0,1,0,.316.95l3-1a.5.5,0,0,0,.342-.476V.5A.5.5,0,0,0,28.567,0Z" transform="translate(-17.067)" stroke="#000" stroke-width="0.5"/>
      </g>
    </g>
    <g id="Group_1000" data-name="Group 1000" transform="translate(18.067 6.5)">
      <g id="Group_999" data-name="Group 999" transform="translate(0)">
        <path id="Path_3795" data-name="Path 3795" d="M62.7,221.867a.5.5,0,0,0-.5.5,5.5,5.5,0,0,1-9.557,3.712l2.215-.738a.5.5,0,1,0-.316-.95l-3,1a.5.5,0,0,0-.342.476v3a.5.5,0,1,0,1,0V227.04a6.487,6.487,0,0,0,11-4.673A.5.5,0,0,0,62.7,221.867Z" transform="translate(-51.198 -221.867)" stroke="#000" stroke-width="0.5"/>
      </g>
    </g>
  </g>
</svg>
