<svg xmlns="http://www.w3.org/2000/svg" width="15.303" height="15.332" viewBox="0 0 15.303 15.332">
  <g id="Group_688" data-name="Group 688" transform="translate(-377.892 -1467)">
    <path id="phone" d="M16.413,12.729v2.157a1.438,1.438,0,0,1-1.568,1.438A14.231,14.231,0,0,1,8.64,14.117,14.022,14.022,0,0,1,4.325,9.8,14.231,14.231,0,0,1,2.118,3.568,1.438,1.438,0,0,1,3.549,2H5.706A1.438,1.438,0,0,1,7.144,3.237a9.233,9.233,0,0,0,.5,2.021,1.438,1.438,0,0,1-.324,1.517l-.913.913A11.505,11.505,0,0,0,10.725,12l.913-.913a1.438,1.438,0,0,1,1.517-.324,9.233,9.233,0,0,0,2.021.5A1.438,1.438,0,0,1,16.413,12.729Z" transform="translate(376.281 1465.5)" fill="none" stroke="#f3f3fd" stroke-linecap="round" stroke-linejoin="round" stroke-width="1"/>
  </g>
</svg>
